<svg xmlns="http://www.w3.org/2000/svg" width="100" height="100" viewBox="0 0 100 100"><defs><style>.cls-1{fill:#013046;}.cls-2{fill:#8fcae6;}</style></defs><g id="Layer_2" data-name="Layer 2"><g id="Layer_1-2" data-name="Layer 1"><circle class="cls-1" cx="50" cy="50" r="50"/><path class="cls-2" d="M50,45.85l.73-.58C51,45.06,57,40.17,57,33.93s-6-11.14-6.23-11.34L50,22l-.73.59C49,22.79,43,27.68,43,33.93s6,11.13,6.23,11.34ZM45.36,33.93c0-4,3.17-7.47,4.64-8.88,1.47,1.41,4.64,4.91,4.64,8.88S51.47,41.39,50,42.8C48.53,41.39,45.36,37.89,45.36,33.93Z"/><path class="cls-2" d="M69.55,42l-.12-.86-.86-.12c-.37,0-9-1.24-13.73,3.51s-3.57,13.37-3.51,13.73l.12.86.86.12a20.32,20.32,0,0,0,2.79.17c3,0,7.81-.55,10.94-3.68C70.79,51,69.6,42.4,69.55,42ZM64.4,54.12c-3.14,3.13-8.7,3.1-10.86,2.94-.15-2.16-.19-7.73,2.94-10.86s8.7-3.09,10.86-2.94C67.49,45.42,67.53,51,64.4,54.12Z"/><path class="cls-2" d="M68.57,59.61c-.37-.06-9-1.25-13.73,3.51s-3.57,13.37-3.51,13.73l.12.86.86.12A20.32,20.32,0,0,0,55.1,78c3,0,7.81-.56,10.94-3.68C70.79,69.56,69.6,61,69.55,60.59l-.12-.86ZM64.4,72.68c-3.14,3.13-8.7,3.09-10.86,2.94-.15-2.17-.19-7.73,2.94-10.86s8.7-3.1,10.86-2.94c.15,2.16.19,7.72-2.94,10.86Z"/><path class="cls-2" d="M45.16,44.56C40.4,39.81,31.79,41,31.43,41.05l-.86.12-.12.86c-.05.36-1.24,9,3.51,13.73,3.13,3.13,7.92,3.68,10.94,3.68a20.32,20.32,0,0,0,2.79-.17l.86-.12.12-.86c.06-.36,1.25-9-3.51-13.73Zm1.3,12.51c-2.16.15-7.73.18-10.86-3s-3.09-8.69-2.94-10.86c2.16-.15,7.73-.19,10.86,2.94S46.61,54.9,46.46,57.07Z"/><path class="cls-2" d="M31.43,59.61l-.86.12-.12.86c-.05.36-1.24,9,3.51,13.73C37.09,77.44,41.88,78,44.9,78a20.32,20.32,0,0,0,2.79-.17l.86-.12.13-.86c0-.36,1.24-9-3.52-13.73s-13.37-3.57-13.73-3.51Zm15,16c-2.16.15-7.73.19-10.86-2.94S32.51,64,32.66,61.82c2.16-.15,7.73-.19,10.86,2.94S46.61,73.46,46.46,75.62Z"/></g></g></svg>