<svg xmlns="http://www.w3.org/2000/svg" width="100" height="100" viewBox="0 0 100 100"><defs><style>.cls-1{fill:#013046;}.cls-2{fill:#8fcae6;}</style></defs><g id="Layer_2" data-name="Layer 2"><g id="Layer_1-2" data-name="Layer 1"><circle class="cls-1" cx="50" cy="50" r="50"/><path class="cls-2" d="M54,24.6H52.78V75.4H54a25.4,25.4,0,1,0,0-50.8ZM77,48.86H67.89a42.43,42.43,0,0,0-1.06-8.61h8A23.24,23.24,0,0,1,77,48.86Zm-3.46-11H66.21a23.57,23.57,0,0,0-5.07-9.65,22.93,22.93,0,0,1,12.38,9.65ZM55.2,27.13c3.53.75,6.68,4.89,8.54,10.71H55.2Zm0,13.06h9.22a41.67,41.67,0,0,1,1.11,8.6H55.2Zm0,11H65.47a41.14,41.14,0,0,1-1.11,8.6H55.2Zm0,21.72V62.22h8.54C61.82,68,58.73,72.19,55.2,72.93Zm5.94-1a23.61,23.61,0,0,0,5.07-9.66h7.31a23.52,23.52,0,0,1-12.38,9.66ZM74.82,59.87h-8a47.15,47.15,0,0,0,1.06-8.6H77a23.85,23.85,0,0,1-2.16,8.6Z"/><path class="cls-2" d="M51.11,37.84v2.35H43l-4.58-8.91H34a3.66,3.66,0,0,0,.13-1.18A6.07,6.07,0,0,0,34,28.93h5.76l4.64,8.91Z"/><path class="cls-2" d="M32.61,30A3.65,3.65,0,1,1,29,26.39,3.64,3.64,0,0,1,32.61,30"/><path class="cls-2" d="M27.91,43.35a3.66,3.66,0,1,1-3.65-3.65,3.66,3.66,0,0,1,3.65,3.65"/><path class="cls-2" d="M51.11,48.86v2.35H41.34l-4.58,6.68H29.33a3.92,3.92,0,0,0,.12-1.18,7,7,0,0,0-.12-1.17h6.19l3.77-5.45-3.77-5.44H29.33a4,4,0,0,0,.12-1.18,7.25,7.25,0,0,0-.12-1.18h7.43l4.58,6.56Z"/><path class="cls-2" d="M27.91,56.71a3.66,3.66,0,1,1-3.65-3.65,3.66,3.66,0,0,1,3.65,3.65"/><path class="cls-2" d="M51.11,59.87v2.35H44.43l-4.58,8.91H34.1A3.88,3.88,0,0,0,34.22,70a7,7,0,0,0-.12-1.18h4.33L43,59.87Z"/><path class="cls-2" d="M32.61,70A3.65,3.65,0,1,1,29,66.37,3.64,3.64,0,0,1,32.61,70"/></g></g></svg>