<svg xmlns="http://www.w3.org/2000/svg" width="100" height="100" viewBox="0 0 100 100"><defs><style>.cls-1{fill:#013046;}.cls-2{fill:#8fcae6;}</style></defs><g id="Layer_2" data-name="Layer 2"><g id="Layer_1-2" data-name="Layer 1"><circle class="cls-1" cx="50" cy="50" r="50"/><path class="cls-2" d="M77.4,45.57l-7.09-.72a20.27,20.27,0,0,0-1.71-4.51l4.71-5.78a1.06,1.06,0,0,0-.07-1.41l-5.58-5.59a1.07,1.07,0,0,0-1.42-.07L60.72,32a20.4,20.4,0,0,0-4.4-2l-.75-7.43a1.06,1.06,0,0,0-1.06-.95H46.63a1.05,1.05,0,0,0-1.05.95l-.73,7.1a20.27,20.27,0,0,0-4.51,1.71l-5.78-4.71a1.06,1.06,0,0,0-1.41.07l-5.59,5.58a1.07,1.07,0,0,0-.07,1.42L32,39.28a20.4,20.4,0,0,0-2,4.4l-7.43.75a1.06,1.06,0,0,0-.95,1.06v7.89a1.06,1.06,0,0,0,1,1l7.09.72a20.27,20.27,0,0,0,1.71,4.51l-4.71,5.77a1.07,1.07,0,0,0,.07,1.42l5.58,5.58a1.06,1.06,0,0,0,1.42.08L39.28,68a20.4,20.4,0,0,0,4.4,2l.75,7.43a1.06,1.06,0,0,0,1.06,1h7.89a1.06,1.06,0,0,0,1-.95l.72-7.09a20.27,20.27,0,0,0,4.51-1.71l5.78,4.71a1.06,1.06,0,0,0,1.41-.07l5.59-5.58a1.07,1.07,0,0,0,.07-1.42L68,60.72a20.4,20.4,0,0,0,2-4.4l7.43-.75a1.06,1.06,0,0,0,1-1.06V46.62a1.06,1.06,0,0,0-.95-1Zm-8.34,8.72a1.06,1.06,0,0,0-.92.77,18.29,18.29,0,0,1-2.32,5.17,1,1,0,0,0,.06,1.24l4.39,5.37L66,71.07l-5.59-4.56a1.06,1.06,0,0,0-1.19-.1,18.09,18.09,0,0,1-5.29,2,1.06,1.06,0,0,0-.83.93l-.71,6.88h-6l-.73-7.19a1.06,1.06,0,0,0-.77-.91,18,18,0,0,1-5.17-2.33,1.06,1.06,0,0,0-.57-.17,1,1,0,0,0-.67.24l-5.37,4.38L28.93,66l4.56-5.59a1.06,1.06,0,0,0,.1-1.19,18.31,18.31,0,0,1-2-5.29,1.05,1.05,0,0,0-.93-.83l-6.89-.71v-6L31,45.71a1.06,1.06,0,0,0,.91-.78,18.11,18.11,0,0,1,2.33-5.16,1.05,1.05,0,0,0-.07-1.24l-4.39-5.37L34,28.93l5.59,4.56a1.06,1.06,0,0,0,1.19.1,18.33,18.33,0,0,1,5.3-2,1.06,1.06,0,0,0,.83-.93l.7-6.89h6l.73,7.18a1.06,1.06,0,0,0,.77.92,18,18,0,0,1,5.17,2.33,1.05,1.05,0,0,0,1.24-.07l5.37-4.39L71.07,34l-4.56,5.59a1.06,1.06,0,0,0-.1,1.19,18.31,18.31,0,0,1,2,5.29,1.05,1.05,0,0,0,.93.83l6.88.71v6Z"/><path class="cls-2" d="M50,34.85a15.16,15.16,0,1,0,10.71,4.44A15.08,15.08,0,0,0,50,34.85Zm9.21,24.36A13,13,0,1,1,63,50,12.9,12.9,0,0,1,59.21,59.21Z"/><path class="cls-2" d="M55,49.35a.42.42,0,0,0-.14-.06l-3.74-1.48,1.13-7.15a.77.77,0,0,0-.65-.87.75.75,0,0,0-.76.34l-6.11,9.46a.72.72,0,0,0-.1.57.77.77,0,0,0,.33.49l.14.07,3.74,1.47-1.13,7.15a.77.77,0,0,0,.65.87h.11a.76.76,0,0,0,.65-.35l6.11-9.45A.78.78,0,0,0,55,49.35Zm-4.56,2.52A.78.78,0,0,0,50,51l-3.44-1.35L50.19,44l-.65,4.13A.77.77,0,0,0,50,49l3.43,1.35L49.81,56Z"/></g></g></svg>