<svg xmlns="http://www.w3.org/2000/svg" width="100" height="100" viewBox="0 0 100 100"><defs><style>.cls-1{fill:#013046;}.cls-2{fill:#8fcae6;}</style></defs><g id="Layer_2" data-name="Layer 2"><g id="Layer_1-2" data-name="Layer 1"><circle class="cls-1" cx="50" cy="50" r="50"/><path class="cls-2" d="M53.28,52.45H46.72a1.54,1.54,0,0,1-1.54-1.54v-8.2H37a1.56,1.56,0,0,1-1.54-1.55V34.61A1.55,1.55,0,0,1,37,33.07h8.21V24.86a1.54,1.54,0,0,1,1.54-1.54h6.56a1.54,1.54,0,0,1,1.54,1.54v8.21H63a1.5,1.5,0,0,1,1.08.44,1.57,1.57,0,0,1,.46,1.1v6.55A1.54,1.54,0,0,1,63,42.7H54.82v8.21a1.54,1.54,0,0,1-1.54,1.54Zm-5.42-2.67h4.28V40h9.75V35.74H52.14V26H47.86v9.74H38.11V40h9.75Z"/><path class="cls-2" d="M69,76.68H54.76V63.32a9.65,9.65,0,0,1,1.89-5.77,11.13,11.13,0,0,1,1-1.11l5.28-5.27a1.9,1.9,0,0,1,2.67,0l.12.13A5.87,5.87,0,0,1,66.86,53a6,6,0,0,1-1.19,6.71L63.88,61.5a.5.5,0,0,0-.14.35v.66L69.28,57a.9.9,0,0,0,.25-.62V47.29a5.81,5.81,0,0,1,.36-2,5.94,5.94,0,0,1,3-3.35,5.85,5.85,0,0,1,2.53-.57,1.91,1.91,0,0,1,1.34.55,1.87,1.87,0,0,1,.55,1.34V58.72a6.6,6.6,0,0,1-1.92,4.63l-4.29,4.29a7.57,7.57,0,0,0-.69.81A7.28,7.28,0,0,0,69,72.76v3.92ZM57.43,74h8.93V72.76a10,10,0,0,1,1.94-5.9,11.23,11.23,0,0,1,1-1.11l4.29-4.29a3.91,3.91,0,0,0,1.14-2.74V44.12a2.54,2.54,0,0,0-.6.22,3.29,3.29,0,0,0-1.69,1.84,3.24,3.24,0,0,0-.19,1.11v9.06a3.57,3.57,0,0,1-1,2.51L65.43,64.6a2.56,2.56,0,0,1-4.37-1.81v-.94A3.17,3.17,0,0,1,62,59.61l1.8-1.8a3.27,3.27,0,0,0,.66-3.68,4.39,4.39,0,0,0-.27-.47L59.5,58.34a7.47,7.47,0,0,0-.69.8,7,7,0,0,0-1.38,4.18V74Z"/><path class="cls-2" d="M45.24,76.68H31V72.76a7.34,7.34,0,0,0-1.42-4.31,9,9,0,0,0-.7-.81l-4.29-4.29a6.6,6.6,0,0,1-1.92-4.63V43.24a1.87,1.87,0,0,1,.55-1.34,1.91,1.91,0,0,1,1.34-.55,5.9,5.9,0,0,1,5.58,3.92,5.81,5.81,0,0,1,.36,2v9.06a.9.9,0,0,0,.25.62l5.55,5.54v-.66a.47.47,0,0,0-.15-.35l-1.79-1.79A6,6,0,0,1,33.14,53a5.87,5.87,0,0,1,1.19-1.7l.12-.13a1.91,1.91,0,0,1,2.68,0l5.27,5.27a11.13,11.13,0,0,1,1,1.11,9.66,9.66,0,0,1,1.9,5.77V76.68ZM33.64,74h8.93V63.32a7,7,0,0,0-1.38-4.18,7.47,7.47,0,0,0-.69-.8l-4.67-4.68a3.1,3.1,0,0,0-.26.47,3.27,3.27,0,0,0,.65,3.69L38,59.61a3.17,3.17,0,0,1,.92,2.24v.94a2.56,2.56,0,0,1-4.37,1.81l-5.74-5.74a3.57,3.57,0,0,1-1-2.51V47.29a3.23,3.23,0,0,0-1.87-2.95,2.79,2.79,0,0,0-.61-.22v14.6a3.91,3.91,0,0,0,1.14,2.74l4.29,4.29a9.85,9.85,0,0,1,2.9,7Z"/></g></g></svg>