<svg xmlns="http://www.w3.org/2000/svg" width="100" height="100" viewBox="0 0 100 100"><defs><style>.cls-1{fill:#013046;}.cls-2{fill:#8fcae6;}</style></defs><g id="Layer_2" data-name="Layer 2"><g id="Layer_1-2" data-name="Layer 1"><circle class="cls-1" cx="50" cy="50" r="50"/><path class="cls-2" d="M64.47,35.27a13.55,13.55,0,0,0-7.6,2.06V26.8H54.6v4.67L53.47,32.6V23.47H51.2V34.93l-1.13,1.14V20H47.8V36l-1.13-1.13V23.47H44.4v9.2l-1.13-1.14V26.87H41v15.8c-1.8-3.4-3.33-6.14-3.73-6.8l-.94-1.67-1,1.6c-.4.67-9.93,15.93-9.93,22.93A10.81,10.81,0,0,0,36.07,69.67V72.6l.6.33,11.8,6.74.6.33L62,72.6V70.53a16.52,16.52,0,0,0,2.67.2c5.53,0,9.93-2.53,9.93-5.8V41.07c-.2-3.2-4.53-5.8-10.13-5.8ZM50.07,76.73V65.8l9.46-5.4V71.27ZM48.93,63.87l-9.46-5.4,9.46-5.4,9.47,5.4ZM54.6,51.93,53.53,53l-2.26-1.27L54.6,48.4ZM50.07,39.27l4.53-4.54v3.54L50.07,42.8Zm0,9.06V46.07l4.53-4.54v3.54L50.07,49.6Zm-6.8-13.6,4.53,4.54V42.8l-4.53-4.53Zm0,6.8,4.53,4.54V49.6l-4.53-4.53Zm3.33,10.2-1.13.67c-.4-1-.8-2.07-1.27-3.07Zm-19,7.07c0-2.6,1.67-7.13,4.73-13.13,1.47-2.8,2.94-5.34,3.87-6.94a134.37,134.37,0,0,1,7.27,14.8L39.13,56,36.6,57.47l-.6.33v9.67a8.65,8.65,0,0,1-8.4-8.67Zm10.67,1.6,9.46,5.4V76.67l-9.46-5.4ZM72.13,65c0,1.67-3.13,3.53-7.6,3.53a11.28,11.28,0,0,1-2.66-.26V62.6a17.6,17.6,0,0,0,2.66.2,13.47,13.47,0,0,0,7.6-2.07Zm0-8c0,1.67-3.13,3.53-7.6,3.53a11.28,11.28,0,0,1-2.66-.26V57.73l-.6-.33L57.4,55.2l-.53-.27V52.8a13.47,13.47,0,0,0,7.6,2.07,13.49,13.49,0,0,0,7.6-2.07V57Zm0-7.93c0,1.66-3.13,3.53-7.6,3.53s-7.6-1.87-7.6-3.53v-4.2a13.57,13.57,0,0,0,7.6,2.06,13.55,13.55,0,0,0,7.6-2.06ZM64.47,44.6c-4.47,0-7.6-1.87-7.6-3.53s3.13-3.54,7.6-3.54,7.6,1.87,7.6,3.54S69,44.6,64.47,44.6Z"/></g></g></svg>