<svg xmlns="http://www.w3.org/2000/svg" width="100" height="100" viewBox="0 0 100 100"><defs><style>.cls-1{fill:#013046;}.cls-2{fill:#8fcae6;}</style></defs><g id="Layer_2" data-name="Layer 2"><g id="Layer_1-2" data-name="Layer 1"><circle class="cls-1" cx="50" cy="50" r="50"/><path class="cls-2" d="M77.63,56.93,69.8,49.1h0a1.26,1.26,0,0,0-.9-.37H58.61l5.65-5.66a1.27,1.27,0,0,0,.38-.9v-9.8a1.25,1.25,0,0,0-.38-.89l-7.83-7.83a1.25,1.25,0,0,0-.89-.38H44.46a1.25,1.25,0,0,0-.89.38l-7.83,7.83a1.25,1.25,0,0,0-.38.89v9.8a1.27,1.27,0,0,0,.38.9l5.65,5.66H31.1a1.26,1.26,0,0,0-.9.37l-7.82,7.83a1.27,1.27,0,0,0-.38.9v9.8a1.25,1.25,0,0,0,.38.89l7.82,7.83h0a1.27,1.27,0,0,0,.9.38H42.17a1.27,1.27,0,0,0,.9-.38L50,69.43l6.93,6.92a1.27,1.27,0,0,0,.9.38H68.9a1.27,1.27,0,0,0,.9-.38l7.82-7.83h0a1.25,1.25,0,0,0,.38-.89v-9.8a1.27,1.27,0,0,0-.38-.9ZM50,56l-4.75-4.76h9.5ZM37.91,32.9,45,25.82H55l7.08,7.08v8.74L55,48.73H45l-7.08-7.09Zm3.73,41.28h-10L24.54,67.1V58.36l7.09-7.09h10l7.09,7.09V67.1ZM75.45,67.1l-7.08,7.08h-10L51.27,67.1V58.36l7.09-7.09h10l7.08,7.09Z"/><path class="cls-2" d="M66.13,55.09H60.6a1.27,1.27,0,0,0-.9.38l-3.92,3.91h0a1.31,1.31,0,0,0-.37.9v4.9h0a1.32,1.32,0,0,0,.37.9L59.7,70h0a1.26,1.26,0,0,0,.9.37h5.53A1.26,1.26,0,0,0,67,70l3.91-3.92h0a1.29,1.29,0,0,0,.38-.9v-4.9h0a1.27,1.27,0,0,0-.38-.9L67,55.47h0a1.27,1.27,0,0,0-.9-.38Zm2.64,9.55-3.18,3.18H61.14L58,64.64V60.82l3.19-3.18h4.45l3.18,3.18Z"/><path class="cls-2" d="M47.23,44.91h5.54a1.29,1.29,0,0,0,.9-.38l3.91-3.91h0a1.26,1.26,0,0,0,.37-.9v-4.9h0a1.24,1.24,0,0,0-.37-.89L53.67,30h0a1.28,1.28,0,0,0-.9-.37H47.23a1.26,1.26,0,0,0-.9.37l-3.91,3.92h0a1.24,1.24,0,0,0-.37.89v4.9h0a1.26,1.26,0,0,0,.37.9l3.91,3.91h0A1.27,1.27,0,0,0,47.23,44.91Zm-2.64-9.55,3.18-3.18h4.46l3.18,3.18v3.82l-3.18,3.18H47.77l-3.18-3.18Z"/><path class="cls-2" d="M40.3,55.47a1.27,1.27,0,0,0-.9-.38H33.87a1.27,1.27,0,0,0-.9.38l-3.91,3.91h0a1.27,1.27,0,0,0-.38.9v4.9h0a1.27,1.27,0,0,0,.38.9L33,70h0a1.26,1.26,0,0,0,.9.37H39.4a1.26,1.26,0,0,0,.9-.37l3.92-3.91h0a1.31,1.31,0,0,0,.37-.9v-4.9h0a1.31,1.31,0,0,0-.37-.9Zm1.75,9.17-3.19,3.18H34.41l-3.18-3.18V60.82l3.18-3.18h4.45l3.19,3.18Z"/></g></g></svg>